<svg xmlns="http://www.w3.org/2000/svg" viewBox="0 0 400 800">
  <!-- Dark space background -->
  <rect width="400" height="800" fill="#0a0a2a"/>
  
  <!-- Space gradient overlay -->
  <defs>
    <linearGradient id="spaceGradient" x1="0%" y1="0%" x2="0%" y2="100%">
      <stop offset="0%" stop-color="#0a0a2a" stop-opacity="1"/>
      <stop offset="40%" stop-color="#101045" stop-opacity="1"/>
      <stop offset="90%" stop-color="#000000" stop-opacity="1"/>
    </linearGradient>
  </defs>
  <rect width="400" height="800" fill="url(#spaceGradient)"/>
  
  <!-- Stars (small white dots) -->
  <g fill="#ffffff">
    <!-- Small stars -->
    <circle cx="20" cy="30" r="0.8"/>
    <circle cx="80" cy="55" r="0.6"/>
    <circle cx="150" cy="42" r="0.7"/>
    <circle cx="220" cy="78" r="0.5"/>
    <circle cx="310" cy="25" r="0.8"/>
    <circle cx="370" cy="60" r="0.6"/>
    <circle cx="40" cy="120" r="0.7"/>
    <circle cx="90" cy="140" r="0.5"/>
    <circle cx="180" cy="110" r="0.8"/>
    <circle cx="260" cy="145" r="0.6"/>
    <circle cx="320" cy="170" r="0.7"/>
    <circle cx="380" cy="125" r="0.5"/>
    <circle cx="25" cy="220" r="0.7"/>
    <circle cx="75" cy="250" r="0.6"/>
    <circle cx="140" cy="210" r="0.8"/>
    <circle cx="200" cy="240" r="0.5"/>
    <circle cx="280" cy="200" r="0.7"/>
    <circle cx="350" cy="230" r="0.6"/>
    <circle cx="30" cy="300" r="0.8"/>
    <circle cx="100" cy="320" r="0.5"/>
    <circle cx="170" cy="345" r="0.7"/>
    <circle cx="240" cy="310" r="0.6"/>
    <circle cx="330" cy="330" r="0.8"/>
    <circle cx="390" cy="340" r="0.5"/>
    <circle cx="50" cy="400" r="0.6"/>
    <circle cx="120" cy="420" r="0.8"/>
    <circle cx="190" cy="390" r="0.5"/>
    <circle cx="260" cy="410" r="0.7"/>
    <circle cx="340" cy="430" r="0.6"/>
    <circle cx="20" cy="480" r="0.7"/>
    <circle cx="80" cy="500" r="0.5"/>
    <circle cx="150" cy="460" r="0.6"/>
    <circle cx="230" cy="490" r="0.8"/>
    <circle cx="300" cy="520" r="0.5"/>
    <circle cx="370" cy="470" r="0.7"/>
    <circle cx="40" cy="560" r="0.6"/>
    <circle cx="110" cy="580" r="0.8"/>
    <circle cx="180" cy="550" r="0.5"/>
    <circle cx="250" cy="570" r="0.7"/>
    <circle cx="320" cy="540" r="0.6"/>
    <circle cx="380" cy="590" r="0.8"/>
    <circle cx="60" cy="630" r="0.5"/>
    <circle cx="130" cy="650" r="0.7"/>
    <circle cx="200" cy="620" r="0.6"/>
    <circle cx="270" cy="640" r="0.8"/>
    <circle cx="340" cy="660" r="0.5"/>
    <circle cx="30" cy="700" r="0.7"/>
    <circle cx="100" cy="720" r="0.6"/>
    <circle cx="170" cy="690" r="0.8"/>
    <circle cx="240" cy="710" r="0.5"/>
    <circle cx="310" cy="730" r="0.7"/>
    <circle cx="380" cy="700" r="0.6"/>
    <circle cx="50" cy="760" r="0.8"/>
    <circle cx="120" cy="780" r="0.5"/>
    <circle cx="190" cy="750" r="0.7"/>
    <circle cx="260" cy="770" r="0.6"/>
    <circle cx="330" cy="790" r="0.8"/>
  </g>
  
  <!-- Nebula effects (semi-transparent color areas) -->
  <g opacity="0.1">
    <ellipse cx="100" cy="200" rx="80" ry="60" fill="#4b0082"/>
    <ellipse cx="300" cy="400" rx="100" ry="70" fill="#800080"/>
    <ellipse cx="150" cy="600" rx="90" ry="65" fill="#4169e1"/>
  </g>
  
  <!-- Distant galaxy -->
  <g opacity="0.2">
    <ellipse cx="320" cy="120" rx="40" ry="10" fill="#ffffff" transform="rotate(30 320 120)"/>
  </g>
  
  <!-- Game area boundary (subtle glow) -->
  <rect x="55" y="40" width="290" height="720" fill="none" stroke="#4169e1" stroke-width="0.5" stroke-opacity="0.3"/>
</svg>
