<svg xmlns="http://www.w3.org/2000/svg" viewBox="0 0 400 400">
  <!-- Background -->
  <rect width="400" height="400" fill="#000033"/>
  
  <!-- Grid pattern -->
  <g stroke="#0055AA" stroke-width="0.5" opacity="0.15">
    <g id="vertical-lines">
      <!-- Vertical grid lines -->
      <line x1="20" y1="0" x2="20" y2="400"/>
      <line x1="40" y1="0" x2="40" y2="400"/>
      <line x1="60" y1="0" x2="60" y2="400"/>
      <line x1="80" y1="0" x2="80" y2="400"/>
      <line x1="100" y1="0" x2="100" y2="400"/>
      <line x1="120" y1="0" x2="120" y2="400"/>
      <line x1="140" y1="0" x2="140" y2="400"/>
      <line x1="160" y1="0" x2="160" y2="400"/>
      <line x1="180" y1="0" x2="180" y2="400"/>
      <line x1="200" y1="0" x2="200" y2="400"/>
      <line x1="220" y1="0" x2="220" y2="400"/>
      <line x1="240" y1="0" x2="240" y2="400"/>
      <line x1="260" y1="0" x2="260" y2="400"/>
      <line x1="280" y1="0" x2="280" y2="400"/>
      <line x1="300" y1="0" x2="300" y2="400"/>
      <line x1="320" y1="0" x2="320" y2="400"/>
      <line x1="340" y1="0" x2="340" y2="400"/>
      <line x1="360" y1="0" x2="360" y2="400"/>
      <line x1="380" y1="0" x2="380" y2="400"/>
    </g>
    
    <g id="horizontal-lines">
      <!-- Horizontal grid lines -->
      <line x1="0" y1="20" x2="400" y2="20"/>
      <line x1="0" y1="40" x2="400" y2="40"/>
      <line x1="0" y1="60" x2="400" y2="60"/>
      <line x1="0" y1="80" x2="400" y2="80"/>
      <line x1="0" y1="100" x2="400" y2="100"/>
      <line x1="0" y1="120" x2="400" y2="120"/>
      <line x1="0" y1="140" x2="400" y2="140"/>
      <line x1="0" y1="160" x2="400" y2="160"/>
      <line x1="0" y1="180" x2="400" y2="180"/>
      <line x1="0" y1="200" x2="400" y2="200"/>
      <line x1="0" y1="220" x2="400" y2="220"/>
      <line x1="0" y1="240" x2="400" y2="240"/>
      <line x1="0" y1="260" x2="400" y2="260"/>
      <line x1="0" y1="280" x2="400" y2="280"/>
      <line x1="0" y1="300" x2="400" y2="300"/>
      <line x1="0" y1="320" x2="400" y2="320"/>
      <line x1="0" y1="340" x2="400" y2="340"/>
      <line x1="0" y1="360" x2="400" y2="360"/>
      <line x1="0" y1="380" x2="400" y2="380"/>
    </g>
  </g>
  
  <!-- Circuit-like patterns -->
  <g stroke="#00AAFF" stroke-width="1" fill="none" opacity="0.1">
    <path d="M20,20 L100,20 L100,100 L180,100 L180,60"/>
    <path d="M350,50 L280,50 L280,150 L220,150 L220,250 L300,250"/>
    <path d="M50,300 L120,300 L120,200 L200,200 L200,350 L300,350"/>
    <circle cx="100" cy="100" r="5"/>
    <circle cx="220" cy="150" r="5"/>
    <circle cx="200" cy="200" r="5"/>
    <circle cx="300" cy="250" r="5"/>
    <circle cx="300" cy="350" r="5"/>
  </g>
  
  <!-- Random "stars" -->
  <g fill="#FFFFFF">
    <circle cx="30" cy="40" r="0.5" opacity="0.7"/>
    <circle cx="150" cy="80" r="0.5" opacity="0.5"/>
    <circle cx="240" cy="120" r="0.5" opacity="0.6"/>
    <circle cx="90" cy="210" r="0.5" opacity="0.8"/>
    <circle cx="310" cy="180" r="0.5" opacity="0.7"/>
    <circle cx="200" cy="270" r="0.5" opacity="0.5"/>
    <circle cx="350" cy="330" r="0.5" opacity="0.6"/>
    <circle cx="120" cy="350" r="0.5" opacity="0.8"/>
    <circle cx="280" cy="70" r="0.5" opacity="0.7"/>
    <circle cx="60" cy="150" r="0.5" opacity="0.5"/>
    
    <!-- Slightly larger "stars" -->
    <circle cx="80" cy="60" r="1" opacity="0.6"/>
    <circle cx="220" cy="180" r="1" opacity="0.7"/>
    <circle cx="320" cy="250" r="1" opacity="0.5"/>
    <circle cx="170" cy="300" r="1" opacity="0.8"/>
    <circle cx="50" cy="250" r="1" opacity="0.6"/>
  </g>
</svg>